<svg viewBox="0 0 24 24" fill="none" width="32" height="32" aria-hidden="true" class="w-6 h-6 text-gray-800 dark:text-white" xmlns="http://www.w3.org/2000/svg" xmlns:xlink="http://www.w3.org/1999/xlink">
    <path stroke-width="2" stroke="currentColor" stroke-linecap="round" stroke-linejoin="round" d="M7.171 12.906 5.018 19.317l2.672-0.89 1.568 2.34 1.825-5.183M16.813 12.906l2.154 6.411-2.673-0.89-1.568 2.34-1.825-5.183M9.165 4.3c0.58 0.068 1.153-0.17 1.515-0.628a1.681 1.681 0 0 1 2.64 0 1.68 1.68 0 0 0 1.515 0.628 1.681 1.681 0 0 1 1.866 1.866c-0.068 0.58 0.17 1.154 0.628 1.516a1.681 1.681 0 0 1 0 2.639 1.682 1.682 0 0 0-0.628 1.515 1.681 1.681 0 0 1-1.866 1.866 1.681 1.681 0 0 0-1.516 0.628 1.681 1.681 0 0 1-2.639 0 1.681 1.681 0 0 0-1.515-0.628 1.681 1.681 0 0 1-1.867-1.866 1.681 1.681 0 0 0-0.627-1.515 1.681 1.681 0 0 1 0-2.64C7.129 7.32 7.367 6.746 7.298 6.166A1.681 1.681 0 0 1 9.165 4.3zM14 9a2 2 0 1 1-4 0 2 2 0 0 1 4 0z" />
</svg>