<svg viewBox="0 0 16 16" fill="currentColor" width="32" height="32" class="bi bi-clock-history" xmlns="http://www.w3.org/2000/svg" xmlns:xlink="http://www.w3.org/1999/xlink">
    <path d="M8.515 1.019A7 7 0 0 0 8 1V0a8 8 0 0 1 0.589 0.022zM10.519 1.469A7 7 0 0 0 9.534 1.17l0.219-0.976q0.576 0.129 1.126 0.342zM11.889 2.179a7 7 0 0 0-0.439-0.27l0.493-0.87a8 8 0 0 1 0.979 0.654l-0.615 0.789a7 7 0 0 0-0.418-0.303zM13.723 3.969a7 7 0 0 0-0.653-0.796l0.724-0.69q0.406 0.429 0.747 0.91zM14.467 5.321a7 7 0 0 0-0.214-0.468l0.893-0.45a8 8 0 0 1 0.45 1.088l-0.95 0.313a7 7 0 0 0-0.179-0.483M14.997 7.828a7 7 0 0 0-0.1-1.025l0.985-0.17q0.1 0.58 0.116 1.17zM14.866 9.366q0.05-0.254 0.081-0.51l0.993 0.123a8 8 0 0 1-0.23 1.155l-0.964-0.267q0.069-0.247 0.12-0.501M13.914 11.745q0.276-0.436 0.486-0.908l0.914 0.405q-0.24 0.54-0.555 1.038zM12.95 12.95q0.183-0.183 0.35-0.378l0.758 0.653a8 8 0 0 1-0.401 0.432z" />
    <path d="M8 1a7 7 0 1 0 4.95 11.95l0.707 0.707A8.001 8.001 0 1 1 8 0z" />
    <path d="M7.5 3A0.5 0.5 0 0 1 8 3.5v5.21l3.248 1.856a0.5 0.5 0 0 1-0.496 0.868l-3.5-2A0.5 0.5 0 0 1 7 9V3.5A0.5 0.5 0 0 1 7.5 3" />
</svg>