<svg viewBox="0 0 16 16" fill="currentColor" width="32" height="32" class="bi bi-patch-check" xmlns="http://www.w3.org/2000/svg" xmlns:xlink="http://www.w3.org/1999/xlink">
    <path d="M10.354 6.146a0.5 0.5 0 0 1 0 0.708l-3 3a0.5 0.5 0 0 1-0.708 0l-1.5-1.5a0.5 0.5 0 1 1 0.708-0.708L7 8.793 9.646 6.146a0.5 0.5 0 0 1 0.708 0" fill-rule="evenodd" />
    <path d="M10.273 2.513 9.352 1.569l0.715-0.698 0.622 0.637 0.89-0.011a2.89 2.89 0 0 1 2.924 2.924l-0.01 0.89 0.636 0.622a2.89 2.89 0 0 1 0 4.134l-0.637 0.622 0.011 0.89a2.89 2.89 0 0 1-2.924 2.924l-0.89-0.01-0.622 0.636a2.89 2.89 0 0 1-4.134 0l-0.622-0.637-0.89 0.011a2.89 2.89 0 0 1-2.924-2.924l0.01-0.89-0.636-0.622a2.89 2.89 0 0 1 0-4.134l0.637-0.622-0.011-0.89a2.89 2.89 0 0 1 2.924-2.924l0.89 0.01 0.622-0.636a2.89 2.89 0 0 1 4.134 0L9.352 1.569a1.89 1.89 0 0 0-2.704 0l-0.92 0.944-1.32-0.016a1.89 1.89 0 0 0-1.911 1.912l0.016 1.318-0.944 0.921a1.89 1.89 0 0 0 0 2.704l0.944 0.92-0.016 1.32a1.89 1.89 0 0 0 1.912 1.911l1.318-0.016 0.921 0.944a1.89 1.89 0 0 0 2.704 0l0.92-0.944 1.32 0.016a1.89 1.89 0 0 0 1.911-1.912l-0.016-1.318 0.944-0.921a1.89 1.89 0 0 0 0-2.704l-0.944-0.92 0.016-1.32a1.89 1.89 0 0 0-1.912-1.911z" />
</svg>