<svg viewBox="0 0 32 32" fill="currentColor" width="32" height="32" xmlns="http://www.w3.org/2000/svg" xmlns:xlink="http://www.w3.org/1999/xlink">
    <path d="M26 32H5c-1.105 0-2-0.896-2-2V6c0-1.105 0.895-2 2-2v24c0 1.104 0.896 2 2 2h4c1.105 0 2-0.896 2-2V4h13c1.105 0 2 0.896 2 2v24c0 1.104-0.895 2-2 2zM21 29h2v-2h-2zM21 26h2v-2h-2zM21 23h2v-2h-2zM21 20h2v-2h-2zM18 29h2v-2h-2zM18 26h2v-2h-2zM18 23h2v-2h-2zM18 20h2v-2h-2zM26 7c0-0.553-0.447-1-1-1h-9c-0.552 0-1 0.447-1 1v4c0 0.552 0.448 1 1 1h9c0.553 0 1-0.448 1-1zM26 18h-2v2h2zM26 21h-2v2h2zM26 24h-2v2h2zM26 27h-2v2h2zM11 29H7c-0.552 0-1-0.447-1-1V3c0-0.553 0.448-1 1-1h1.938V0H10v2h1c0.552 0 1 0.447 1 1v25c0 0.553-0.448 1-1 1z" />
</svg>