<svg viewBox="0 0 16 16" fill="currentColor" width="32" height="32" class="bi bi-car-front" xmlns="http://www.w3.org/2000/svg" xmlns:xlink="http://www.w3.org/1999/xlink">
    <path d="M4 9a1 1 0 1 1-2 0 1 1 0 0 1 2 0M14 9a1 1 0 1 1-2 0 1 1 0 0 1 2 0M6 8a1 1 0 0 0 0 2h4a1 1 0 1 0 0-2zM4.862 4.276 3.906 6.19a0.51 0.51 0 0 0 0.497 0.731c0.91-0.073 2.35-0.17 3.597-0.17s2.688 0.097 3.597 0.17a0.51 0.51 0 0 0 0.497-0.731l-0.956-1.913A0.5 0.5 0 0 0 10.691 4H5.309a0.5 0.5 0 0 0-0.447 0.276" />
    <path d="M2.52 3.515A2.5 2.5 0 0 1 4.82 2h6.362c1 0 1.904 0.596 2.298 1.515l0.792 1.848c0.075 0.175 0.21 0.319 0.38 0.404 0.5 0.25 0.855 0.715 0.965 1.262l0.335 1.679q0.05 0.242 0.049 0.49v0.413c0 0.814-0.39 1.543-1 1.997V13.5a0.5 0.5 0 0 1-0.5 0.5h-2a0.5 0.5 0 0 1-0.5-0.5v-1.338c-1.292 0.048-2.745 0.088-4 0.088s-2.708-0.04-4-0.088V13.5a0.5 0.5 0 0 1-0.5 0.5h-2a0.5 0.5 0 0 1-0.5-0.5v-1.892c-0.61-0.454-1-1.183-1-1.997V9.198a2.5 2.5 0 0 1 0.049-0.49l0.335-1.68c0.11-0.546 0.465-1.012 0.964-1.261A0.8 0.8 0 0 0 1.73 5.363zM4.82 3a1.5 1.5 0 0 0-1.379 0.91L2.649 5.757a1.8 1.8 0 0 1-0.853 0.904 0.8 0.8 0 0 0-0.43 0.564L1.03 8.904A1.5 1.5 0 0 0 1 9.198v0.413c0 0.796 0.62 1.448 1.408 1.484C3.963 11.165 6.194 11.25 8 11.25s4.037-0.084 5.592-0.155A1.48 1.48 0 0 0 15 9.611V9.198q0-0.148-0.03-0.294l-0.335-1.68a0.8 0.8 0 0 0-0.43-0.563 1.8 1.8 0 0 1-0.853-0.904L12.56 3.909A1.5 1.5 0 0 0 11.18 3z" />
</svg>