<svg id="chauffeur_Layer_1" viewBox="0 0 300.001 300.001" fill="currentColor" width="32" height="32" version="1.1" xmlns="http://www.w3.org/2000/svg" xmlns:xlink="http://www.w3.org/1999/xlink">
    <g>
        <path d="M111.29 87.097h-6.561c9.89-7.989 16.239-20.197 16.239-33.871V36.019c5.758-3.358 9.677-9.532 9.677-16.665C130.646 8.681 121.966 0 111.29 0H43.548C32.875 0 24.195 8.681 24.195 19.355c0 7.132 3.919 13.306 9.677 16.665v17.206c0 13.674 6.348 25.882 16.239 33.871H43.55c-24.01 0-43.549 19.538-43.549 43.548v48.387c0 16.011 13.021 29.032 29.032 29.032V300h96.774v-91.935c16.011 0 29.032-13.021 29.032-29.032v-48.387c0-24.011-19.539-43.549-43.549-43.549zM33.872 19.354c0-5.337 4.34-9.677 9.677-9.677h67.742c5.337 0 9.677 4.34 9.677 9.677s-4.34 9.677-9.677 9.677H43.548c-5.336 0-9.676-4.34-9.676-9.677zM108.842 38.71c-3.711 5.894-10.229 9.677-17.502 9.677H63.498c-7.273 0-13.79-3.784-17.502-9.677zM43.548 53.226v-2.734c5.39 4.718 12.368 7.573 19.95 7.573H91.34c7.582 0 14.56-2.855 19.95-7.573v2.734c0 18.677-15.194 33.871-33.871 33.871S43.548 71.903 43.548 53.226zM99.305 96.774l-4.804 12.02-4.645-3.097 8.922-8.923zM80.256 101.613h-5.671l-4.839-4.839h15.349zM82.089 162.682l-4.669 4.669-4.669-4.669 4.282-51.392h0.774zM64.988 105.701l-4.645 3.097-4.81-12.024h0.528zM29.034 198.387c-7.133 0-13.307-3.919-16.665-9.677h16.665zM72.581 290.323h-33.87v-9.677h33.871zM116.13 290.323H82.258v-9.677h33.871zM116.13 270.968H82.258v-53.226h-9.677v53.226h-33.87v-72.581h77.419zM125.807 198.387v-9.677h16.665c-3.358 5.758-9.532 9.677-16.665 9.677zM145.162 179.032h-19.355v-58.065h-9.677v67.742H38.711v-67.742h-9.677v58.065H9.678v-48.387c0-18.677 15.194-33.871 33.871-33.871h1.563l10.679 26.69 11.139-7.427-4.195 50.313 14.685 14.686 14.685-14.685-4.195-50.313 11.139 7.427 10.679-26.69h1.563c18.677 0 33.871 15.194 33.871 33.871z" />
        <path d="M247.37 0c-11.124 0-20.773 7.539-23.473 18.324l-12.353 49.418h-8.318V53.226h-29.032c-10.674 0-19.355 8.681-19.355 19.355s8.681 19.355 19.355 19.355h23.052l7.335 3.668-0.61 2.439c-23.647 9.518-39.455 32.748-39.455 58.326v78.16c0 11.54 8.216 21.314 19.355 23.603v27.353c0 8.003 6.513 14.516 14.516 14.516h38.71c8.003 0 14.516-6.513 14.516-14.516V261.29H300v-19.355-38.71-96.774-9.677V0zM193.549 82.258h-19.355c-5.337 0-9.677-4.34-9.677-9.677s4.34-9.677 9.677-9.677h19.355zM203.227 84.106v-6.687h5.898l-2.144 8.565zM203.226 290.323h-4.839c-2.665 0-4.838-2.173-4.838-4.839v-26.095c3.218 0.329 6.445 0.61 9.677 0.852zM237.097 290.323h-4.839v-4.839h-9.677v4.839h-9.677v-29.487c3.227 0.155 6.45 0.271 9.677 0.339v14.632h9.677V261.29h9.677v24.194h1e-3c0 2.666-2.173 4.839-4.839 4.839zM290.323 232.258h-77.419c-5.337 0-9.677-4.34-9.677-9.677s4.34-9.677 9.677-9.677h77.419zM290.323 203.226h-77.419c-10.674 0-19.355 8.681-19.355 19.355s8.681 19.355 19.355 19.355h77.419v9.677h-60.339c-14.356 0-28.848-0.905-43.074-2.681-7.248-0.905-12.716-7.098-12.716-14.405v-78.16c0-22.065 13.882-42.092 34.539-49.839l0.213-0.077h81.377zM290.323 96.774h-76.06l19.026-76.103c1.616-6.469 7.408-10.994 14.081-10.994h42.953z" />
        <path d="M188.711 150c0 16.011 13.021 29.032 29.032 29.032s29.032-13.021 29.032-29.032-13.021-29.032-29.032-29.032-29.032 13.021-29.032 29.032zM217.743 130.645c10.674 0 19.355 8.681 19.355 19.355s-8.681 19.355-19.355 19.355-19.355-8.681-19.355-19.355 8.68-19.355 19.355-19.355z" />
    </g>
</svg>