<svg viewBox="0 0 16 16" fill="currentColor" width="32" height="32" class="bi bi-credit-card-2-front" xmlns="http://www.w3.org/2000/svg" xmlns:xlink="http://www.w3.org/1999/xlink">
    <path d="M14 3a1 1 0 0 1 1 1v8a1 1 0 0 1-1 1H2a1 1 0 0 1-1-1V4a1 1 0 0 1 1-1zM2 2a2 2 0 0 0-2 2v8a2 2 0 0 0 2 2h12a2 2 0 0 0 2-2V4a2 2 0 0 0-2-2z" />
    <path d="M2 5.5A0.5 0.5 0 0 1 2.5 5h2A0.5 0.5 0 0 1 5 5.5v1A0.5 0.5 0 0 1 4.5 7h-2A0.5 0.5 0 0 1 2 6.5zM2 8.5A0.5 0.5 0 0 1 2.5 8h5a0.5 0.5 0 0 1 0 1h-5A0.5 0.5 0 0 1 2 8.5M2 10.5A0.5 0.5 0 0 1 2.5 10h1a0.5 0.5 0 0 1 0 1h-1A0.5 0.5 0 0 1 2 10.5M5 10.5A0.5 0.5 0 0 1 5.5 10h1a0.5 0.5 0 0 1 0 1h-1A0.5 0.5 0 0 1 5 10.5M8 10.5A0.5 0.5 0 0 1 8.5 10h1a0.5 0.5 0 0 1 0 1h-1A0.5 0.5 0 0 1 8 10.5M11 10.5a0.5 0.5 0 0 1 0.5-0.5h1a0.5 0.5 0 0 1 0 1h-1a0.5 0.5 0 0 1-0.5-0.5" />
</svg>