<svg viewBox="0 0 16 16" fill="currentColor" width="32" height="32" class="bi bi-airplane-engines" xmlns="http://www.w3.org/2000/svg" xmlns:xlink="http://www.w3.org/1999/xlink">
    <path d="M8 0C7.213 0 6.708 0.592 6.428 1.151A4.35 4.35 0 0 0 6 3v3.691l-2 1V7.5A0.5 0.5 0 0 0 3.5 7h-1A0.5 0.5 0 0 0 2 7.5v1.191L0.83 9.276A1.5 1.5 0 0 0 0 10.618V12a0.5 0.5 0 0 0 0.582 0.493l1.631-0.272 0.313 0.937a0.5 0.5 0 0 0 0.948 0l0.405-1.214 2.21-0.369 0.375 2.253-1.318 1.318A0.5 0.5 0 0 0 5.5 16h5a0.5 0.5 0 0 0 0.354-0.854l-1.318-1.318 0.375-2.253 2.21 0.369 0.405 1.214a0.5 0.5 0 0 0 0.948 0l0.313-0.937 1.63 0.272A0.5 0.5 0 0 0 16 12v-1.382a1.5 1.5 0 0 0-0.83-1.342L14 8.691V7.5A0.5 0.5 0 0 0 13.5 7h-1A0.5 0.5 0 0 0 12 7.5v0.191l-2-1V3c0-0.568-0.14-1.271-0.428-1.849C9.292 0.591 8.787 0 8 0M7 3c0-0.432 0.11-0.979 0.322-1.401C7.542 1.159 7.787 1 8 1s0.458 0.158 0.678 0.599C8.889 2.02 9 2.569 9 3v4a0.5 0.5 0 0 0 0.276 0.447l5.448 2.724A0.5 0.5 0 0 1 15 10.618v0.792l-5.418-0.903a0.5 0.5 0 0 0-0.575 0.41l-0.5 3a0.5 0.5 0 0 0 0.14 0.437L9.293 15H6.707l0.647-0.646a0.5 0.5 0 0 0 0.14-0.436l-0.5-3a0.5 0.5 0 0 0-0.576-0.411L1 11.41v-0.792a0.5 0.5 0 0 1 0.276-0.447l5.448-2.724A0.5 0.5 0 0 0 7 7z" />
</svg>