<svg viewBox="0 0 16 16" fill="currentColor" width="32" height="32" class="bi bi-gem" xmlns="http://www.w3.org/2000/svg" xmlns:xlink="http://www.w3.org/1999/xlink">
    <path d="M3.1 0.7a0.5 0.5 0 0 1 0.4-0.2h9a0.5 0.5 0 0 1 0.4 0.2l2.976 3.974c0.149 0.185 0.156 0.45 0.01 0.644L8.4 15.3a0.5 0.5 0 0 1-0.8 0l-7.5-10a0.5 0.5 0 0 1 0-0.6zM14.486 4.485 12.68 2.075 11.904 4.488zM10.853 4.489 11.814 1.5H4.186l0.963 2.995zM5.47 5.495 8 13.366 10.532 5.49zM4.099 4.496 3.319 2.074 1.501 4.499zM1.499 5.5l5.113 6.817-2.192-6.82zM9.388 12.317l5.123-6.83-2.928 2e-3z" />
</svg>