<svg viewBox="0 0 16 16" fill="currentColor" width="32" height="32" class="bi bi-trophy" xmlns="http://www.w3.org/2000/svg" xmlns:xlink="http://www.w3.org/1999/xlink">
    <path d="M2.5 0.5A0.5 0.5 0 0 1 3 0h10a0.5 0.5 0 0 1 0.5 0.5q0 0.807-0.034 1.536a3 3 0 1 1-1.133 5.89c-0.79 1.865-1.878 2.777-2.833 3.011v2.173l1.425 0.356c0.194 0.048 0.377 0.135 0.537 0.255L13.3 15.1A0.5 0.5 0 0 1 13 16H3a0.5 0.5 0 0 1-0.3-0.9l1.838-1.379c0.16-0.12 0.343-0.207 0.537-0.255L6.5 13.11v-2.173c-0.955-0.234-2.043-1.146-2.833-3.012a3 3 0 1 1-1.132-5.89A33 33 0 0 1 2.5 0.5M2.599 3.04a2 2 0 0 0 0.72 3.935c-0.333-1.05-0.588-2.346-0.72-3.935M12.682 6.975a2 2 0 0 0 0.72-3.935c-0.133 1.59-0.388 2.885-0.72 3.935M3.504 1q0.01 0.775 0.056 1.469c0.13 2.028 0.457 3.546 0.87 4.667C5.294 9.48 6.484 10 7 10a0.5 0.5 0 0 1 0.5 0.5v2.61a1 1 0 0 1-0.757 0.97l-1.426 0.356a0.5 0.5 0 0 0-0.179 0.085L4.5 15h7l-0.638-0.479a0.5 0.5 0 0 0-0.18-0.085L9.257 14.08A1 1 0 0 1 8.5 13.11V10.5A0.5 0.5 0 0 1 9 10c0.516 0 1.706-0.52 2.57-2.864 0.413-1.12 0.74-2.64 0.87-4.667Q12.485 1.775 12.496 1z" />
</svg>