<svg viewBox="0 0 48 48" fill="currentColor" width="32" height="32" clip-rule="evenodd" fill-rule="evenodd" xmlns="http://www.w3.org/2000/svg" xmlns:xlink="http://www.w3.org/1999/xlink">
    <path d="M6 11c0-0.5523 0.4477-1 1-1h34c0.5523 0 1 0.4477 1 1s-0.4477 1-1 1H7c-0.5523 0-1-0.4477-1-1z" />
    <path d="M6 24c0-0.5523 0.4477-1 1-1h34c0.5523 0 1 0.4477 1 1s-0.4477 1-1 1H7c-0.5523 0-1-0.4477-1-1z" />
    <path d="M6 37c0-0.5523 0.4477-1 1-1h34c0.5523 0 1 0.4477 1 1s-0.4477 1-1 1H7c-0.5523 0-1-0.4477-1-1z" />
</svg>